<?xml version="1.0" encoding="UTF-8" standalone="no"?>
<svg
   xmlns:dc="http://purl.org/dc/elements/1.1/"
   xmlns:cc="http://creativecommons.org/ns#"
   xmlns:rdf="http://www.w3.org/1999/02/22-rdf-syntax-ns#"
   xmlns:svg="http://www.w3.org/2000/svg"
   xmlns="http://www.w3.org/2000/svg"
   xmlns:sodipodi="http://sodipodi.sourceforge.net/DTD/sodipodi-0.dtd"
   xmlns:inkscape="http://www.inkscape.org/namespaces/inkscape"
   version="1.1"
   id="Layer_1"
   x="0px"
   y="0px"
   width="73.37487"
   height="62.132465"
   viewBox="0 0 73.374871 62.132465"
   enable-background="new 0 0 417 69"
   xml:space="preserve"
   inkscape:version="0.48.4 r9939"
   sodipodi:docname="idlogo.svg"><metadata
     id="metadata167"><rdf:RDF><cc:Work
         rdf:about=""><dc:format>image/svg+xml</dc:format><dc:type
           rdf:resource="http://purl.org/dc/dcmitype/StillImage" /></cc:Work></rdf:RDF></metadata><defs
     id="defs165" /><sodipodi:namedview
     pagecolor="#ffffff"
     bordercolor="#666666"
     borderopacity="1"
     objecttolerance="10"
     gridtolerance="10"
     guidetolerance="10"
     inkscape:pageopacity="0"
     inkscape:pageshadow="2"
     inkscape:window-width="1600"
     inkscape:window-height="844"
     id="namedview163"
     showgrid="false"
     showborder="false"
     fit-margin-top="0"
     fit-margin-left="0"
     fit-margin-right="0"
     fit-margin-bottom="0"
     inkscape:zoom="0.8441247"
     inkscape:cx="41.410389"
     inkscape:cy="31.164467"
     inkscape:window-x="0"
     inkscape:window-y="27"
     inkscape:window-maximized="1"
     inkscape:current-layer="Layer_1" /><g
     id="g3"
     transform="translate(-1.8296674,-3.5320003)"><path
       clip-rule="evenodd"
       d="m 24.036,3.532 c 0.967,0.414 1.939,0.816 2.898,1.246 8.959,4.008 17.746,8.354 26.164,13.413 5.241,3.148 10.319,6.529 14.862,10.649 2.362,2.142 4.538,4.451 6.02,7.313 0.824,1.588 1.366,3.27 1.192,5.094 -0.2,2.107 -1.251,3.783 -2.768,5.189 -2.107,1.954 -4.646,3.186 -7.29,4.208 -3.743,1.45 -7.616,2.469 -11.564,3.147 -3.84,0.662 -7.693,1.281 -11.565,1.691 -5.482,0.58 -10.988,0.953 -16.484,1.412 -0.22,0.019 -0.443,0.002 -0.678,-0.065 1.561,-0.319 3.13,-0.612 4.684,-0.962 4.326,-0.98 8.542,-2.301 12.515,-4.291 3.195,-1.6 6.147,-3.561 8.354,-6.458 2.585,-3.396 3.163,-7.17 2.094,-11.249 -1.04,-3.96 -3.234,-7.29 -5.763,-10.421 C 42.227,17.899 36.854,13.295 31.214,8.989 28.926,7.242 26.571,5.587 24.248,3.889 24.15,3.816 24.068,3.722 23.978,3.636 23.997,3.604 24.018,3.567 24.036,3.532 z"
       id="path5"
       inkscape:connector-curvature="0"
       style="fill-rule:evenodd" /><path
       clip-rule="evenodd"
       d="m 36.13,65.075 c -1.494,-0.16 -2.988,-0.344 -4.485,-0.478 -2.525,-0.224 -4.97,-0.787 -7.359,-1.625 -2.15,-0.753 -4.137,-1.777 -5.767,-3.398 -1.307,-1.303 -2.161,-2.864 -2.383,-4.707 -0.299,-2.495 0.313,-4.83 1.334,-7.092 1.084,-2.394 2.519,-4.57 4.091,-6.658 0.81,-1.079 1.93,-2.386 2.789,-3.438 -0.054,-0.264 -0.365,-0.239 -0.381,-0.509 -0.004,-0.064 -0.004,-0.092 -0.007,-0.146 -0.549,-0.306 -0.651,-0.885 -1.179,-1.225 -0.044,0.068 -0.584,0.439 -0.688,0.517 -2.334,1.705 -4.666,3.41 -6.955,5.172 -3.192,2.459 -6.185,5.148 -8.869,8.156 -1.645,1.841 -3.12,3.803 -3.994,6.15 -1.128,3.032 -0.093,5.648 2.769,7.154 2.642,1.393 5.502,1.92 8.412,2.273 3.552,0.433 7.117,0.52 10.688,0.385 4.007,-0.153 8.016,-0.328 12.024,-0.494 -0.015,-0.012 -0.027,-0.024 -0.04,-0.037 z"
       id="path7"
       inkscape:connector-curvature="0"
       style="fill:#906f2b;fill-rule:evenodd" /><circle
       cx="28.056"
       cy="32.668999"
       r="6.4970002"
       id="circle9"
       sodipodi:cx="28.056"
       sodipodi:cy="32.668999"
       sodipodi:rx="6.4970002"
       sodipodi:ry="6.4970002"
       style="fill:#901a1d"
       d="m 34.553,32.668999 c 0,3.588194 -2.908806,6.497 -6.497,6.497 -3.588194,0 -6.497,-2.908806 -6.497,-6.497 0,-3.588194 2.908806,-6.497 6.497,-6.497 3.588194,0 6.497,2.908806 6.497,6.497 z" /></g></svg>